<svg width="550" height="181" viewBox="0 0 550 181" fill="none" xmlns="http://www.w3.org/2000/svg">
<path d="M164.485 5.17852H180.796V30.6102H205.999V5.1403H222.311V67.5446H205.999V43.5841H180.796V67.5446H164.485V5.17852Z" fill="#1E5865"/>
<path d="M280.309 67.5446L276.025 56.5197H249.025L244.666 67.5446H227.913L254.722 5.1403H271.473L297.671 67.5446H280.329H280.309ZM253.938 44.0618H271.205L262.678 21.8018L253.938 44.0618Z" fill="#1E5865"/>
<path d="M339.55 20.2541C336.776 18.7446 333.985 17.9994 331.25 17.9994C328.114 17.9994 325.245 18.802 322.626 20.3496C320.045 21.9355 318.018 24.0756 316.508 26.8653C315.034 29.6358 314.289 32.6929 314.289 36.0749C314.289 39.457 315.034 42.5331 316.508 45.2845C317.98 48.055 320.045 50.1952 322.626 51.8001C325.207 53.3862 328.058 54.1885 331.25 54.1885C333.795 54.1885 336.489 53.5579 339.263 52.2396C342.035 50.9213 344.541 49.1442 346.72 46.8897L356.243 57.131C352.859 60.7041 348.823 63.5129 344.177 65.6148C339.531 67.7166 334.885 68.7864 330.314 68.7864C324.119 68.7864 318.554 67.3535 313.563 64.5066C308.552 61.6596 304.671 57.7616 301.803 52.8511C298.954 47.9405 297.519 42.4185 297.519 36.3041C297.519 30.1899 298.99 24.8016 301.878 19.9102C304.784 15.0378 308.782 11.2164 313.869 8.44583C318.954 5.67528 324.635 4.28045 330.946 4.28045C335.592 4.28045 340.161 5.23583 344.674 7.18476C349.207 9.13369 353.011 11.7514 356.149 15.0761L346.703 26.4639C344.713 23.8463 342.303 21.8209 339.512 20.3115L339.55 20.2541Z" fill="#1E5865"/>
<path d="M423.288 67.5446H403.801L387.393 43.3357L379.572 52.0676V67.5446H363.261V5.17851H379.572V32.2343L402.998 5.17851H421.891L398.752 30.8777L423.288 67.5446Z" fill="#1E5865"/>
<path d="M164.255 115.064H180.567V177.469H164.255V115.064Z" fill="#1E5865"/>
<path d="M192.69 115.064H209.001V163.577H235.448V177.469H192.69V115.064Z" fill="#1E5865"/>
<path d="M247.84 115.064H264.15V163.577H290.598V177.469H247.84V115.064Z" fill="#1E5865"/>
<path d="M299.68 115.064H315.992V177.469H299.68V115.064Z" fill="#1E5865"/>
<path d="M372.459 115.064H387.586V177.469H373.339L345.038 140.171V177.469H329.797V115.064H344.138L372.574 152.629L372.497 115.064H372.459Z" fill="#1E5865"/>
<path d="M448.489 118.274C453.615 121.045 457.668 124.905 460.594 129.738C463.539 134.611 464.991 140.057 464.991 146.133C464.991 152.209 463.52 157.75 460.594 162.679C457.648 167.59 453.615 171.488 448.489 174.335C443.365 177.182 437.609 178.615 431.26 178.615C424.911 178.615 419.155 177.22 414.032 174.373C408.906 171.564 404.853 167.667 401.927 162.718C398.982 157.75 397.529 152.247 397.529 146.133C397.529 140.018 399.001 134.63 401.927 129.738C404.853 124.847 408.906 121.045 414.032 118.274C419.155 115.504 424.911 114.071 431.26 114.071C437.609 114.071 443.327 115.465 448.489 118.274ZM422.808 130.293C420.149 131.879 418.084 134.095 416.536 136.923C414.987 139.732 414.242 142.827 414.242 146.209C414.242 149.591 415.045 152.801 416.632 155.61C418.219 158.419 420.284 160.654 422.904 162.278C425.524 163.902 428.392 164.743 431.432 164.743C434.473 164.743 437.342 163.902 439.923 162.278C442.504 160.654 444.53 158.438 446.043 155.61C447.514 152.801 448.26 149.668 448.26 146.209C448.26 142.751 447.514 139.751 446.043 136.923C444.569 134.114 442.504 131.879 439.923 130.293C437.342 128.707 434.493 127.866 431.432 127.866C428.373 127.866 425.485 128.669 422.808 130.293Z" fill="#1E5865"/>
<path d="M472.317 115.064H488.627V177.469H472.317V115.064Z" fill="#1E5865"/>
<path d="M532.303 129.032C528.536 127.809 525.361 127.159 522.818 127.159C520.792 127.159 519.205 127.522 518.057 128.267C516.911 129.013 516.317 130.102 516.317 131.516C516.317 132.872 516.834 134.019 517.827 134.936C518.821 135.853 520.083 136.598 521.557 137.152C523.028 137.706 525.248 138.471 528.154 139.33C532.475 140.553 536.052 141.833 538.882 143.056C541.692 144.279 544.121 146.228 546.148 148.808C548.174 151.387 549.17 154.75 549.17 158.915C549.17 163.081 548.061 166.615 545.88 169.539C543.699 172.481 540.679 174.698 536.836 176.169C532.991 177.641 528.726 178.386 524.061 178.386C518.898 178.386 513.736 177.469 508.61 175.691C503.486 173.857 499.031 171.412 495.302 168.278L501.612 155.533C504.748 158.304 508.477 160.616 512.817 162.393C517.101 164.17 520.963 165.049 524.254 165.049C526.68 165.049 528.632 164.609 530.009 163.692C531.404 162.813 532.113 161.514 532.113 159.756C532.113 158.323 531.597 157.138 530.562 156.183C529.529 155.228 528.21 154.482 526.642 153.928C525.055 153.374 522.876 152.706 520.008 151.941C515.724 150.757 512.187 149.553 509.413 148.33C506.642 147.107 504.213 145.273 502.225 142.808C500.235 140.343 499.241 137.057 499.241 132.968C499.241 129.127 500.273 125.745 502.3 122.803C504.364 119.898 507.252 117.644 511.039 116.096C514.807 114.51 519.186 113.708 524.177 113.708C528.709 113.708 533.145 114.338 537.562 115.618C541.979 116.879 545.822 118.599 549.151 120.739L542.992 133.751C539.666 131.802 536.127 130.216 532.342 128.955L532.303 129.032Z" fill="#1E5865"/>
<path d="M119.337 1.60544V40.4506H85.739V72.627H34.8353V40.4506H0.778279L23.3235 1.60544H119.337Z" fill="#1E5865"/>
<path d="M119.337 138.719L97.652 177.564H0.778279V138.719H34.8353V106.542H85.739V138.719H119.337Z" fill="#1E5865"/>
<g opacity="0.94">
<path d="M119.337 1.60544V40.4506H85.739V72.627H34.8353V40.4506H0.778279L23.3235 1.60544H119.337Z" fill="#1E5865"/>
<path d="M119.337 138.719L97.652 177.564H0.778279V138.719H34.8353V106.542H85.739V138.719H119.337Z" fill="#1E5865"/>
</g>
<path d="M119.337 1.60544V40.4506H85.739V72.627H34.8353V40.4506H0.778279L23.3235 1.60544H119.337Z" fill="#1E5865"/>
<path d="M119.337 138.719L97.652 177.564H0.778279V138.719H34.8353V106.542H85.739V138.719H119.337Z" fill="#1E5865"/>
</svg>
